<svg id="Layer_1" data-name="Layer 1" xmlns="http://www.w3.org/2000/svg" viewBox="0 0 162.63 162.63"><defs><style>.cls-1{fill:#e4e1f4;}.cls-2{fill:#b7a5ef;}.cls-3{fill:#8056e9;}</style></defs><title>EquipmentDamageIcon</title><circle class="cls-1" cx="81.32" cy="81.32" r="81.32"/><rect class="cls-2" x="39.2" y="105.21" width="84.53" height="21.61" rx="2.19"/><rect class="cls-2" x="39.2" y="36.92" width="84.53" height="7.68" rx="2.59"/><path class="cls-3" d="M66.54,35.15V50a2.82,2.82,0,0,0,.67,1.82L73.92,60a2.16,2.16,0,0,0,3.25,0l6.68-8.11a3,3,0,0,0,.7-1.9V35.17a2.08,2.08,0,0,0-2.21-1.93H68.72A2.06,2.06,0,0,0,66.54,35.15Z"/><rect class="cls-3" x="58.51" y="62.23" width="45.92" height="42.98"/><polygon class="cls-1" points="92.18 83.26 97.61 95.43 90.93 106.64 100.53 116.85 98.33 126.83 88.22 126.83 92.6 119.77 84.88 105.05 93.85 94.94 92.18 83.26"/></svg>